<svg width="403" height="639" viewBox="0 0 403 639" fill="none" xmlns="http://www.w3.org/2000/svg">
<path d="M27.3694 368.091C30.9909 358.936 35.3669 348.374 35.4172 348.223C34.8639 343.293 33.1537 334.894 28.0736 332.479C21.6353 329.512 17.9635 338.314 17.0581 340.728C17.209 340.376 17.3599 339.873 17.6114 339.32C18.3659 340.577 25.5586 353.253 27.3694 368.091Z" fill="#EAEAEA"/>
<path d="M137.021 418.842C109.81 396.811 99.2468 383.934 94.9211 369.247C90.5451 354.56 88.4326 346.914 79.077 346.11C69.7214 345.305 68.4639 360.998 71.0292 368.643C73.5944 376.289 78.2219 390.473 78.8758 395.05C79.1273 396.811 79.2279 398.37 79.2279 399.527C90.9978 405.613 98.7941 406.116 98.7941 406.116C99.4983 405.965 100.203 406.468 100.353 407.172C100.504 407.877 100.001 408.581 99.2971 408.681C99.2468 408.681 91.0984 408.38 79.0267 402.344C79.0267 402.394 79.0267 402.444 79.0267 402.444L65.1945 394.044L67.2065 395.252C65.8484 399.477 64.1382 404.054 63.937 406.569C63.6855 409.486 63.9873 411.599 65.1442 412.957C68.4136 416.83 80.7369 435.038 80.7872 435.088C81.1895 435.692 81.0387 436.497 80.4351 436.949C79.8315 437.352 79.0267 437.201 78.574 436.597C78.5237 436.547 66.2508 418.439 63.1323 414.717C61.4724 412.756 60.9694 409.989 61.3215 406.368C61.6233 403.048 64.2891 396.459 65.6472 391.378C66.3514 386.449 67.6089 375.886 66.5526 370.152C65.0939 362.406 61.1706 360.495 57.8509 360.344C56.8449 360.294 55.9395 360.646 55.185 361.099C55.2353 361.35 55.185 361.602 55.0844 361.853C53.9276 364.368 50.8593 372.768 48.948 379.206C45.5277 390.523 41.8558 404.205 41.0008 407.474C39.7433 412.303 42.2079 419.294 42.2079 419.345C42.4594 420.049 42.057 420.803 41.3529 421.055C40.6487 421.306 39.8942 420.904 39.6427 420.2C39.6427 420.2 36.9266 412.454 38.3852 406.82C39.2906 403.501 42.9624 389.769 46.3827 378.452C48.3444 371.963 51.4629 363.412 52.6701 360.797C52.821 360.545 53.0222 360.344 53.2234 360.193C53.7767 355.465 53.827 347.82 49.0989 345.305C44.572 342.941 40.3972 346.311 37.9828 349.077C37.9828 349.178 37.9325 349.278 37.8822 349.379C37.8319 349.429 31.9973 363.111 27.8225 374.528L27.7722 374.679C25.3578 381.218 23.195 388.059 22.3399 393.39C20.0261 408.078 20.7806 414.063 20.7806 414.063C20.8309 414.767 20.2776 415.421 19.5735 415.472C18.8693 415.522 18.2154 414.969 18.1651 414.264C18.1651 414.214 17.3603 407.977 19.7244 392.938C20.5794 387.455 22.7926 380.514 25.2069 373.874C24.8045 356.22 15.3987 340.627 15.3484 340.577C15.2478 340.426 15.1975 340.325 15.1975 340.174C12.934 338.917 9.0107 337.307 6.24427 339.671C2.17006 343.142 3.62873 348.323 3.62873 348.323C3.62873 348.323 11.4753 398.772 13.4873 404.657C15.449 410.492 20.7303 422.061 20.7303 422.061C20.7303 422.061 25.6093 437 49.7528 454.956C73.8962 472.913 85.8673 479.955 89.6901 508.122C92.708 530.404 93.3116 607.714 93.4122 639H182.592L159.404 461.093C159.404 461.042 164.233 440.873 137.021 418.842Z" fill="#EAEAEA"/>
<path d="M382.832 339.32C383.083 339.873 383.284 340.376 383.385 340.728C382.48 338.314 378.808 329.512 372.42 332.479C367.289 334.894 365.579 343.293 365.026 348.223C365.076 348.323 369.452 358.886 373.074 368.091C374.884 353.253 382.077 340.577 382.832 339.32Z" fill="#EAEAEA"/>
<path d="M394.199 339.672C391.433 337.308 387.51 338.918 385.296 340.225C385.246 340.376 385.196 340.477 385.146 340.628C385.095 340.678 375.74 356.271 375.287 373.926C377.701 380.565 379.914 387.506 380.77 392.989C383.134 408.028 382.329 414.265 382.329 414.316C382.279 415.02 381.625 415.573 380.92 415.523C380.166 415.472 379.663 414.819 379.713 414.114C379.713 414.064 380.468 408.129 378.154 393.442C377.299 388.11 375.136 381.269 372.722 374.73L372.671 374.579C368.446 363.162 362.612 349.48 362.561 349.43C362.511 349.329 362.511 349.229 362.461 349.128C360.046 346.362 355.821 342.942 351.345 345.356C345.309 348.525 347.069 360.043 347.673 363.262C347.522 362.558 347.371 361.502 347.22 360.194C347.472 360.345 347.673 360.546 347.773 360.798C348.981 363.463 352.099 371.964 354.061 378.453C357.431 389.77 361.153 403.501 362.058 406.821C363.567 412.455 360.851 420.201 360.801 420.201C360.549 420.905 359.845 421.257 359.141 421.056C358.437 420.854 358.034 420.05 358.286 419.345C358.286 419.345 360.751 412.304 359.493 407.475C358.638 404.155 354.916 390.524 351.546 379.207C349.635 372.769 346.516 364.369 345.359 361.854C345.259 361.602 345.208 361.351 345.259 361.099C344.504 360.596 343.599 360.244 342.593 360.295C339.273 360.446 335.35 362.407 333.891 370.103C332.483 377.597 334.998 393.039 335.199 393.995C335.148 393.794 334.998 392.788 334.796 391.279C336.154 396.359 338.82 402.948 339.122 406.318C339.424 409.94 338.921 412.706 337.311 414.668C334.193 418.39 321.92 436.497 321.87 436.548C321.467 437.151 320.612 437.302 320.009 436.9C319.405 436.497 319.254 435.642 319.656 435.039C319.707 434.988 332.03 416.78 335.249 412.907C336.406 411.549 336.708 409.437 336.456 406.519C336.255 404.004 334.545 399.477 333.187 395.202L321.367 402.344C321.367 402.344 320.763 399.477 321.467 394.9C322.171 390.323 326.749 376.139 329.314 368.493C331.879 360.848 330.622 345.155 321.316 345.959C311.961 346.764 309.848 354.41 305.472 369.097C301.096 383.784 290.533 396.661 263.372 418.692C236.16 440.722 240.989 460.892 240.989 460.892L217.801 638.799H306.981C307.082 607.513 307.685 530.254 310.703 507.922C314.526 479.754 326.497 472.713 350.641 454.756C374.784 436.799 379.663 421.86 379.663 421.86C379.663 421.86 384.944 410.342 386.906 404.457C388.868 398.622 396.765 348.122 396.765 348.122C396.765 348.122 398.274 343.143 394.199 339.672ZM301.197 408.682C300.493 408.531 299.99 407.877 300.14 407.173C300.291 406.469 300.945 405.966 301.649 406.117C301.7 406.117 309.446 405.614 321.216 399.528C321.216 401.037 321.367 402.043 321.417 402.395C309.395 408.38 301.197 408.732 301.197 408.682Z" fill="#EAEAEA"/>
<path d="M218.232 17.6268L222.545 29.8045C222.799 30.8193 223.814 31.5804 224.829 31.8341C225.843 32.0878 226.858 32.0878 227.873 31.3267L228.888 30.5656C230.156 29.8045 231.679 29.5508 232.947 30.0582L238.021 31.8341C238.782 32.0878 239.797 32.0878 240.558 31.8341L244.871 30.0582C246.14 29.5508 247.662 29.5508 248.677 30.3119C249.945 31.073 250.706 32.0878 250.96 33.61L251.721 39.4452C251.721 39.9526 251.721 40.46 251.721 40.9674L248.423 56.9506C248.169 57.9654 247.662 58.7265 246.901 59.4876L237.767 67.606C237.006 68.1135 236.499 69.1283 236.499 70.1431C236.499 71.1579 236.753 71.919 237.514 72.6801C241.319 76.4856 246.14 76.993 250.96 73.9486C254.258 71.919 256.795 70.6505 259.078 69.6357C261.108 68.6209 262.884 67.8598 264.406 66.5912C264.406 66.3375 264.406 65.8301 264.152 65.069L263.645 62.2783C263.391 60.7561 263.899 59.2339 264.913 58.2191C265.928 57.2043 267.45 56.6969 268.973 56.9506L273.286 57.7117C274.3 57.9654 275.315 57.7117 276.076 56.9506L277.345 55.9358C279.121 54.4136 281.911 54.6673 283.687 56.4432L285.971 59.2339C286.478 59.995 287.239 60.2487 288.254 60.5024L293.074 61.0098C293.582 61.0098 294.343 61.0098 294.85 60.7561L302.461 57.7117C303.73 57.2043 305.252 57.2043 306.521 57.9654L309.565 59.995C309.819 60.2487 310.072 60.2487 310.326 60.5024L320.728 63.5468C321.489 63.8005 322.25 64.3079 322.757 64.8153L324.28 66.5912C325.294 67.6061 325.548 69.1283 325.294 70.6505C325.041 72.1727 323.772 73.1875 322.504 73.6949L315.146 76.2319C314.385 76.4856 313.37 76.4856 312.609 76.2319L295.358 71.919C294.85 71.6653 294.089 71.6653 293.328 71.919L259.586 83.3355C259.078 83.5892 258.571 83.843 258.064 84.3504L244.11 101.095C244.11 101.095 244.11 101.348 243.856 101.348L228.127 124.943C227.112 126.211 227.366 127.987 228.38 129.256L242.08 144.224C242.841 144.985 243.349 146.254 243.349 147.268L243.095 167.818C243.095 169.087 243.856 170.355 244.871 170.863C251.721 174.668 275.823 186.592 294.597 177.459C309.058 170.355 315.654 168.833 318.445 169.087C319.459 169.087 320.22 168.833 320.982 168.326L321.996 167.564C322.757 166.803 323.772 166.55 325.041 166.55C325.294 166.55 325.548 166.55 326.056 166.55C327.578 166.803 328.593 167.818 329.1 169.087L330.368 171.877C330.368 172.131 330.622 172.385 330.622 172.638L335.696 193.188C335.696 193.696 335.95 194.203 336.457 194.457L346.352 206.381C347.113 207.396 347.366 208.41 347.366 209.679L345.844 223.125C345.844 223.886 345.844 224.901 346.352 225.408L361.574 247.227C362.081 248.242 362.335 249.256 362.335 250.271L360.305 267.523C360.052 268.791 360.559 270.06 361.574 270.567L368.931 276.149C369.692 276.656 370.961 276.91 371.976 276.656C372.99 276.402 373.751 275.641 374.259 274.627L389.988 238.347C389.988 238.094 389.988 238.093 390.242 237.84L400.644 198.009L402.166 192.427C401.659 179.742 399.883 167.057 396.838 154.372C377.557 73.1875 311.595 15.3435 234.216 2.65845L232.947 3.67325L220.008 13.5676C218.232 14.5824 217.725 16.1046 218.232 17.6268Z" fill="white"/>
<path d="M394.301 239.363C394.301 239.87 394.047 240.124 393.794 240.632L378.064 276.911C377.049 279.194 375.02 280.97 372.483 281.731C371.722 281.985 370.96 281.985 370.199 281.985C368.423 281.985 366.647 281.477 365.125 280.209L357.768 274.628C355.231 272.852 353.962 269.807 354.47 266.763L356.499 249.765L341.531 227.946C340.263 226.171 339.755 224.141 340.009 222.111L341.531 208.919L331.89 196.995C331.129 195.98 330.622 194.965 330.114 193.697L325.04 173.147L324.026 171.117L323.772 171.371C321.996 172.893 319.966 173.654 317.429 173.401C316.668 173.401 311.848 173.401 296.372 181.265C275.569 191.667 249.437 178.728 242.08 174.669C239.289 173.147 237.767 170.356 237.767 167.058L238.021 146.762L224.575 131.794C222.038 128.749 221.53 124.436 223.814 121.392L239.797 98.0512C239.797 97.7975 240.05 97.5438 240.304 97.2901L254.258 80.5458C255.273 79.2773 256.541 78.5162 258.063 78.0088L291.806 66.5923C293.328 66.0849 295.104 66.0848 296.626 66.3386L313.624 70.6515L319.966 68.3682L319.205 67.6071L309.057 64.5626C308.296 64.3089 307.535 64.0552 307.028 63.5478L304.237 61.7719L297.133 64.8163C295.865 65.3237 294.343 65.5774 292.82 65.3237L288 64.8163C285.97 64.5626 283.941 63.5478 282.419 62.0256L280.389 59.7423L279.628 60.5034C277.598 62.2793 275.061 62.7867 272.524 62.2793L269.226 61.5182L269.48 63.2941C269.734 64.5626 270.495 68.1145 267.704 69.8904C265.674 71.1589 263.898 72.1737 261.615 73.4422C259.585 74.457 257.048 75.7255 253.75 77.7551C247.154 81.8143 239.797 81.0532 234.215 75.7255C232.439 74.2033 231.425 71.6663 231.678 69.383C231.678 67.0997 232.693 64.8163 234.469 63.2941L243.602 55.4294L246.647 39.9536L245.886 35.1333L242.334 36.6555C240.304 37.4166 238.275 37.4166 236.245 36.9092L231.425 35.1333L230.663 35.6407C228.38 37.1629 225.843 37.6703 223.306 36.6555C220.769 35.8944 218.739 33.8648 217.978 31.3277L213.665 19.1501C212.397 15.5982 213.665 11.7927 216.456 9.5094L225.336 2.65946L226.604 1.64465C206.308 -0.892364 185.251 -0.638663 164.194 3.42056C164.447 3.67426 164.701 3.92797 164.955 4.18167C166.223 5.70388 166.731 7.47979 166.984 9.5094L167.238 26.7611C167.238 29.5518 165.97 32.0888 163.686 33.8648L152.016 41.9832L143.644 51.8776L136.033 64.5626C135.272 66.0848 134.003 67.0997 132.227 67.8608L81.2332 91.9624L68.8019 124.944L78.6962 143.21C79.9647 145.493 79.9647 148.538 78.9499 151.075L76.6666 155.642C74.8907 159.193 71.0852 160.969 67.2797 160.208L61.4445 159.193L38.6114 157.164L30.7466 162.745V167.565L37.3429 164.521C41.1484 162.745 45.4613 164.014 47.9983 167.312L51.5502 172.386C53.0724 174.415 53.3261 176.952 52.8187 179.236L50.5354 188.876L59.4149 202.069C59.4149 202.069 59.4149 202.323 59.6686 202.323C59.9223 202.323 60.176 202.323 60.6834 202.576L67.026 204.86L74.637 202.323L81.4869 192.428C82.2481 191.16 83.5166 190.145 84.7851 189.638L90.1128 187.1C92.1424 186.086 94.4257 186.847 95.6942 188.369C96.9627 190.145 96.9627 192.428 95.6942 193.95L95.4405 194.204L107.872 191.921C109.902 191.667 111.931 191.921 113.453 192.936L120.557 196.995L147.957 197.249C150.494 197.249 152.777 198.517 154.553 200.293L160.642 207.904L171.297 216.53L198.697 219.321C201.995 219.574 205.04 221.858 206.054 225.156C209.099 235.05 204.786 244.437 202.756 248.243C205.547 262.196 203.517 272.344 202.503 275.896C202.249 277.418 201.488 278.687 200.219 279.702L187.027 292.894L183.729 325.875C183.475 327.397 182.968 328.92 182.206 329.934L171.805 344.142L172.566 351.245L174.342 359.618L182.46 364.945C185.251 366.721 186.773 370.019 186.012 373.571C185.251 377.63 181.699 380.675 177.64 380.675C177.64 380.675 177.64 380.675 177.386 380.675L169.014 380.421C166.984 380.421 165.208 379.66 163.686 378.391L139.585 357.842C132.735 352.514 129.437 342.366 128.422 338.053C123.094 334.755 120.557 328.159 120.05 326.129C120.05 325.875 119.796 325.622 119.796 325.368L115.229 302.027C109.394 301.013 106.603 296.446 106.096 295.938L102.037 287.313C76.4129 283 66.2649 262.957 64.4889 258.898C63.9815 257.883 63.7278 256.868 63.7278 255.6L63.4741 242.154C63.4741 241.9 63.4741 241.646 63.4741 241.139L64.9963 223.126L52.0576 216.022C51.2965 215.769 50.7891 215.261 50.2817 214.754L42.1632 206.636C41.6558 206.128 41.4021 205.874 41.1484 205.367C41.1484 205.367 39.1188 202.83 30.7466 200.8C21.3597 198.771 15.2708 191.921 12.2264 188.115L0.302442 191.921C-0.712364 210.695 0.809845 228.961 5.12277 247.481C11.4653 274.374 23.1356 298.729 38.6114 319.786C85.0388 382.958 165.97 415.686 247.154 396.404C335.442 375.347 396.077 299.237 401.151 212.978L398.868 221.858L394.301 239.363Z" fill="white"/>
<path d="M10.9582 183.803C12.7341 183.295 14.7637 183.803 15.7785 185.325C18.3155 188.623 23.6432 194.712 31.7617 196.488C41.6561 198.771 44.7005 202.069 45.2079 203.084C45.2079 203.338 45.4616 203.338 45.7153 203.591L53.8337 211.71C54.0874 211.963 54.3411 212.217 54.5948 212.217L68.041 219.574C69.5632 220.336 70.578 222.111 70.3243 223.887L68.8021 242.408C68.8021 242.408 68.8021 242.661 68.8021 242.915L69.0558 256.107C69.0558 256.615 69.0558 257.122 69.3095 257.376C70.8317 260.928 79.965 278.941 103.306 282.746C104.828 283 106.096 284.015 106.604 285.283L110.663 294.163C110.663 294.163 112.439 297.207 116.244 297.715C118.274 297.968 119.796 299.49 120.05 301.266L124.616 324.861V325.114C124.87 326.129 126.9 331.711 130.959 334.248C131.974 334.755 132.735 335.77 132.989 337.038C134.003 340.844 136.794 349.723 142.629 354.29L166.731 374.84C167.238 375.347 167.999 375.601 168.761 375.601L177.133 375.855C178.655 375.855 180.177 374.586 180.431 373.064C180.684 371.795 180.177 370.273 178.909 369.512L170.536 363.931C169.522 363.17 169.014 362.408 168.761 361.14L166.985 352.514L165.97 344.903C165.716 343.888 166.224 342.62 166.731 341.859L177.386 327.398C177.64 326.89 177.894 326.383 178.147 325.622L181.446 292.387C181.446 291.372 181.953 290.357 182.714 289.596L195.907 276.15C196.414 275.642 196.668 275.135 196.668 274.628C197.429 271.33 199.205 261.943 196.668 249.004C196.414 247.989 196.668 246.721 197.175 245.959C198.951 242.915 202.757 234.797 200.22 226.424C199.712 225.156 198.697 224.141 197.429 224.141L169.775 221.35C169.014 221.35 167.999 220.843 167.492 220.336L156.583 211.456C156.329 211.202 156.075 210.949 156.075 210.949L149.733 203.338C148.972 202.576 148.211 202.069 147.196 202.069L119.796 201.815C119.035 201.815 118.274 201.562 117.767 201.308L110.409 197.249C109.648 196.741 108.887 196.741 108.126 196.995L95.4408 199.532C94.6797 199.786 93.6649 199.532 92.9038 199.278L92.1427 199.025C90.8742 198.517 89.8594 197.502 89.6057 195.98C89.352 194.965 89.3519 193.697 90.113 192.682L86.8149 194.204C86.3075 194.458 85.8001 194.965 85.5464 195.219L78.4428 205.367C77.9354 206.128 77.1743 206.889 76.1595 207.143L67.7873 209.68C67.5336 209.68 67.0262 209.934 66.7725 209.934C66.5188 209.934 66.0114 209.934 65.7577 209.68L58.6541 207.143C57.1318 207.143 55.6096 206.128 55.1022 204.606L45.969 190.906C45.969 190.652 45.7153 190.652 45.7153 190.399C45.4616 189.638 45.4616 188.877 45.7153 187.862L47.9986 178.221C48.2523 177.206 47.9986 176.191 47.4912 175.43L43.9394 170.356C42.9246 169.088 41.1486 168.58 39.6264 169.342L32.2691 172.64C31.0006 173.401 29.2247 173.147 27.9562 172.386C26.6877 171.625 25.9266 170.103 25.9266 168.834L25.6729 162.492C25.6729 160.969 26.434 159.701 27.4488 158.686L35.8209 152.597C36.582 152.09 37.5968 151.836 38.8653 151.836L62.2059 154.119L68.2947 155.388C69.8169 155.642 71.3391 154.881 72.1002 153.612L74.1299 149.045C74.6373 148.031 74.6373 146.762 74.1299 146.001L63.9818 127.481C63.4744 126.212 63.2207 124.944 63.7281 123.675L76.4132 90.1866C76.9206 89.1718 77.6817 88.157 78.6965 87.6496L129.944 63.548C130.452 63.2943 130.959 62.7869 131.466 62.2795L139.077 49.3407C139.077 49.087 139.331 48.8333 139.585 48.8333L147.957 38.6852C148.211 38.4315 148.464 38.1778 148.718 37.9241L160.388 29.8057C161.403 29.0446 161.911 28.0298 161.911 27.015L161.657 9.76325C161.657 8.74844 161.149 7.98734 160.642 7.22623C159.881 6.71883 159.12 6.21143 158.105 6.21143L154.3 6.46513L149.987 6.71883C71.3391 27.2687 15.5248 91.9625 2.83971 167.819C1.8249 174.162 1.0638 180.758 0.556396 187.354L10.9582 183.803Z" fill="white"/>
</svg>
